<svg width="350" height="382" viewBox="0 0 350 382" fill="none" xmlns="http://www.w3.org/2000/svg">
<g clip-path="url(#clip0_46_2126)">
<rect width="350" height="382" rx="40" fill="white"/>
<g filter="url(#filter0_f_46_2126)">
<path d="M55 290L293 270L381 379L-77 392L55 290Z" fill="#B5B5B4"/>
</g>
<g opacity="0.5" filter="url(#filter1_i_46_2126)">
<rect width="350" height="382" rx="38.2" fill="url(#paint0_linear_46_2126)"/>
</g>
<rect x="48" y="11" width="253" height="286" rx="21.01" fill="url(#paint1_linear_46_2126)"/>
<rect x="47.045" y="10.045" width="254.91" height="287.91" rx="21.965" stroke="white" stroke-opacity="0.5" stroke-width="1.91"/>
<rect x="48.955" y="11.955" width="251.09" height="284.09" rx="20.055" fill="url(#paint2_linear_46_2126)" stroke="url(#paint3_linear_46_2126)" stroke-width="1.91"/>
<g opacity="0.7">
<rect x="141" y="75" width="68.76" height="157.166" rx="34.38" fill="white" fill-opacity="0.01"/>
<g filter="url(#filter2_d_46_2126)">
<path d="M160.473 163.142V153.477H170.315V103.135C169.145 99.6436 163.961 92.4489 161.423 90.4702C158.902 88.5195 155.916 87.0432 152.588 85.9889C151.742 85.7183 150.255 85.4963 148.394 85.3696C146.378 85.2325 144.191 85.2149 142.203 85.2685C141.567 85.2885 141.567 85.2885 141.454 85.2938L141 75.4815C141.198 75.4724 141.198 75.4724 141.938 75.4493C144.21 75.3879 146.686 75.4078 149.061 75.5694C151.646 75.7454 153.821 76.07 155.568 76.629C159.92 78.0079 163.931 79.9907 167.448 82.712C169.704 84.4709 172.654 87.9456 175.127 91.6509C177.671 87.9593 180.736 84.5348 183.299 82.7686C187.492 79.8573 191.307 77.7903 194.953 76.6351C196.714 76.0706 198.89 75.7457 201.479 75.5698C203.849 75.4088 206.321 75.389 208.59 75.4502C209.33 75.4734 209.33 75.4734 209.528 75.4824L209.074 85.2948C208.961 85.2895 208.961 85.2895 208.325 85.2695C206.34 85.2159 204.156 85.2334 202.145 85.3701C200.282 85.4966 198.795 85.7186 197.936 85.994C195.364 86.8092 192.355 88.4392 188.887 90.847C186.156 92.7289 181.439 99.1327 180.001 103.009V153.477H189.804V163.142H180.001V204.153C181.438 208.026 186.154 214.419 188.908 216.31C192.353 218.711 195.353 220.334 197.963 221.146C198.803 221.418 200.288 221.641 202.148 221.769C204.162 221.907 206.348 221.926 208.333 221.872C208.963 221.852 208.963 221.852 209.074 221.847L209.528 231.659C209.332 231.668 209.332 231.668 208.597 231.691C206.326 231.753 203.85 231.732 201.475 231.569C198.884 231.391 196.706 231.063 194.994 230.51C191.317 229.366 187.491 227.296 183.32 224.388C180.744 222.62 177.67 219.191 175.121 215.496C172.651 219.193 169.705 222.662 167.441 224.435C163.93 227.162 159.908 229.15 155.591 230.505C153.829 231.073 151.652 231.401 149.064 231.579C146.685 231.743 144.205 231.763 141.931 231.702C141.196 231.679 141.196 231.679 141 231.67L141.454 221.858C141.565 221.863 141.565 221.863 142.195 221.883C144.183 221.936 146.373 221.918 148.39 221.779C150.25 221.652 151.735 221.428 152.614 221.145C155.913 220.109 158.896 218.634 161.401 216.689C163.968 214.679 169.146 207.494 170.174 203.966L170.315 163.142H160.473Z" fill="black"/>
</g>
<path d="M160.473 163.142V153.477H170.315V103.135C169.145 99.6436 163.961 92.4489 161.423 90.4702C158.902 88.5195 155.916 87.0432 152.588 85.9889C151.742 85.7183 150.255 85.4963 148.394 85.3696C146.378 85.2325 144.191 85.2149 142.203 85.2685C141.567 85.2885 141.567 85.2885 141.454 85.2938L141 75.4815C141.198 75.4724 141.198 75.4724 141.938 75.4493C144.21 75.3879 146.686 75.4078 149.061 75.5694C151.646 75.7454 153.821 76.07 155.568 76.629C159.92 78.0079 163.931 79.9907 167.448 82.712C169.704 84.4709 172.654 87.9456 175.127 91.6509C177.671 87.9593 180.736 84.5348 183.299 82.7686C187.492 79.8573 191.307 77.7903 194.953 76.6351C196.714 76.0706 198.89 75.7457 201.479 75.5698C203.849 75.4088 206.321 75.389 208.59 75.4502C209.33 75.4734 209.33 75.4734 209.528 75.4824L209.074 85.2948C208.961 85.2895 208.961 85.2895 208.325 85.2695C206.34 85.2159 204.156 85.2334 202.145 85.3701C200.282 85.4966 198.795 85.7186 197.936 85.994C195.364 86.8092 192.355 88.4392 188.887 90.847C186.156 92.7289 181.439 99.1327 180.001 103.009V153.477H189.804V163.142H180.001V204.153C181.438 208.026 186.154 214.419 188.908 216.31C192.353 218.711 195.353 220.334 197.963 221.146C198.803 221.418 200.288 221.641 202.148 221.769C204.162 221.907 206.348 221.926 208.333 221.872C208.963 221.852 208.963 221.852 209.074 221.847L209.528 231.659C209.332 231.668 209.332 231.668 208.597 231.691C206.326 231.753 203.85 231.732 201.475 231.569C198.884 231.391 196.706 231.063 194.994 230.51C191.317 229.366 187.491 227.296 183.32 224.388C180.744 222.62 177.67 219.191 175.121 215.496C172.651 219.193 169.705 222.662 167.441 224.435C163.93 227.162 159.908 229.15 155.591 230.505C153.829 231.073 151.652 231.401 149.064 231.579C146.685 231.743 144.205 231.763 141.931 231.702C141.196 231.679 141.196 231.679 141 231.67L141.454 221.858C141.565 221.863 141.565 221.863 142.195 221.883C144.183 221.936 146.373 221.918 148.39 221.779C150.25 221.652 151.735 221.428 152.614 221.145C155.913 220.109 158.896 218.634 161.401 216.689C163.968 214.679 169.146 207.494 170.174 203.966L170.315 163.142H160.473Z" fill="black"/>
</g>
</g>
<defs>
<filter id="filter0_f_46_2126" x="-96.1" y="250.9" width="496.2" height="160.2" filterUnits="userSpaceOnUse" color-interpolation-filters="sRGB">
<feFlood flood-opacity="0" result="BackgroundImageFix"/>
<feBlend mode="normal" in="SourceGraphic" in2="BackgroundImageFix" result="shape"/>
<feGaussianBlur stdDeviation="9.55" result="effect1_foregroundBlur_46_2126"/>
</filter>
<filter id="filter1_i_46_2126" x="0" y="0" width="350" height="382" filterUnits="userSpaceOnUse" color-interpolation-filters="sRGB">
<feFlood flood-opacity="0" result="BackgroundImageFix"/>
<feBlend mode="normal" in="SourceGraphic" in2="BackgroundImageFix" result="shape"/>
<feColorMatrix in="SourceAlpha" type="matrix" values="0 0 0 0 0 0 0 0 0 0 0 0 0 0 0 0 0 0 127 0" result="hardAlpha"/>
<feMorphology radius="1.91" operator="dilate" in="SourceAlpha" result="effect1_innerShadow_46_2126"/>
<feOffset/>
<feGaussianBlur stdDeviation="3.82"/>
<feComposite in2="hardAlpha" operator="arithmetic" k2="-1" k3="1"/>
<feColorMatrix type="matrix" values="0 0 0 0 0 0 0 0 0 0 0 0 0 0 0 0 0 0 0.25 0"/>
<feBlend mode="normal" in2="shape" result="effect1_innerShadow_46_2126"/>
</filter>
<filter id="filter2_d_46_2126" x="131.177" y="65.5944" width="88.174" height="175.962" filterUnits="userSpaceOnUse" color-interpolation-filters="sRGB">
<feFlood flood-opacity="0" result="BackgroundImageFix"/>
<feColorMatrix in="SourceAlpha" type="matrix" values="0 0 0 0 0 0 0 0 0 0 0 0 0 0 0 0 0 0 127 0" result="hardAlpha"/>
<feOffset/>
<feGaussianBlur stdDeviation="4.91143"/>
<feColorMatrix type="matrix" values="0 0 0 0 1 0 0 0 0 1 0 0 0 0 1 0 0 0 1 0"/>
<feBlend mode="normal" in2="BackgroundImageFix" result="effect1_dropShadow_46_2126"/>
<feBlend mode="normal" in="SourceGraphic" in2="effect1_dropShadow_46_2126" result="shape"/>
</filter>
<linearGradient id="paint0_linear_46_2126" x1="168" y1="147.07" x2="232.692" y2="206.343" gradientUnits="userSpaceOnUse">
<stop stop-color="#BDB9B3"/>
<stop offset="0.925" stop-color="#A7A3A0"/>
</linearGradient>
<linearGradient id="paint1_linear_46_2126" x1="72.8039" y1="44.6471" x2="298.316" y2="225.487" gradientUnits="userSpaceOnUse">
<stop stop-color="#D7D8D7"/>
<stop offset="1" stop-color="#EBECEB"/>
</linearGradient>
<linearGradient id="paint2_linear_46_2126" x1="150" y1="32" x2="219.844" y2="251.457" gradientUnits="userSpaceOnUse">
<stop stop-color="#D3D0CB"/>
<stop offset="1" stop-color="#E1DFDC"/>
</linearGradient>
<linearGradient id="paint3_linear_46_2126" x1="82.7255" y1="38.1046" x2="321.974" y2="262.975" gradientUnits="userSpaceOnUse">
<stop stop-color="#D3D4D3"/>
<stop offset="1" stop-color="#E6E7E6"/>
</linearGradient>
<clipPath id="clip0_46_2126">
<rect width="350" height="382" rx="40" fill="white"/>
</clipPath>
</defs>
</svg>
